<svg width="64" height="64" viewBox="0 0 64 64" xmlns="http://www.w3.org/2000/svg">
  <defs>
    <linearGradient id="lemon-gradient-fav" x1="0%" y1="0%" x2="100%" y2="100%">
      <stop offset="0%" stop-color="#FACC15"/>
      <stop offset="100%" stop-color="#CA8A04"/>
    </linearGradient>
  </defs>

  <!-- Back lemon (shadow) -->
  <g opacity="0.4" transform="translate(4, 8)">
    <ellipse cx="24" cy="26" rx="18" ry="20" fill="#CA8A04"/>
    <ellipse cx="21" cy="23" rx="12" ry="14" fill="#FEF9C3" opacity="0.3"/>
    <path d="M24 6C24 6 21 3 24 1.5C27 3 24 6 24 6Z" fill="#15803D"/>
  </g>

  <!-- Front lemon (main) -->
  <g transform="translate(16, 4)">
    <ellipse cx="24" cy="30" rx="18" ry="20" fill="url(#lemon-gradient-fav)"/>
    <ellipse cx="21" cy="27" rx="12" ry="14" fill="#FEF9C3" opacity="0.45"/>
    <path d="M24 10C24 10 21 7 24 5C27 7 24 10 24 10Z" fill="#15803D"/>
    <path d="M22.5 10C21 8.5 18 9 18 9" stroke="#15803D" stroke-width="1.5" stroke-linecap="round"/>
  </g>
</svg>
